<svg id="Layer_1" data-name="Layer 1" xmlns="http://www.w3.org/2000/svg" viewBox="0 0 4.25 3.93"><defs><style>.cls-1{fill:#653213;}.cls-2{fill:#fed4a0;}.cls-3{fill:#020000;}</style></defs><title>TLBBB</title><path class="cls-1" d="M4.25,2.14l-.08-.42a.42.42,0,0,0-.4-.33H3.69l-.13,0,0-.57A5.19,5.19,0,0,0,2.13.66H2a.49.49,0,0,1,.1-.29.45.45,0,0,0-.34.11A.71.71,0,0,1,1.83.19a.55.55,0,0,0-.39.38.47.47,0,0,1,0-.26.61.61,0,0,0-.32.44L.73.85l0,.57-.13,0H.49a.42.42,0,0,0-.41.33L0,2.14a.4.4,0,0,0,.33.48L1,2.73l-.16.79,1.34.6,1.33-.6L3.3,2.73l.61-.11A.41.41,0,0,0,4.25,2.14Z" transform="translate(0 -0.19)"/><path class="cls-2" d="M.67,1.61l-.15,0h0a.23.23,0,0,0-.22.18L.2,2.18a.22.22,0,0,0,.17.25l.24,0Z" transform="translate(0 -0.19)"/><path class="cls-2" d="M4.05,2.18,4,1.76a.22.22,0,0,0-.21-.18h0l-.15,0,.07.86.23,0A.21.21,0,0,0,4.05,2.18Z" transform="translate(0 -0.19)"/><path class="cls-2" d="M3.17,1.53l-.39-.39a.28.28,0,0,0-.4,0l-.25.25-.26-.25a.28.28,0,0,0-.4,0l-.39.39a.28.28,0,0,0,0,.4l.39.38L1.32,3a.28.28,0,0,0,.16.31L2,3.59a.31.31,0,0,0,.23,0l.53-.24A.28.28,0,0,0,2.93,3l-.14-.73.38-.38A.28.28,0,0,0,3.17,1.53Z" transform="translate(0 -0.19)"/><path class="cls-3" d="M1.81,1.71a.16.16,0,0,1-.32,0,.16.16,0,0,1,.32,0Z" transform="translate(0 -0.19)"/><path class="cls-3" d="M2.76,1.71a.16.16,0,0,1-.16.16.16.16,0,0,1-.15-.16.15.15,0,0,1,.15-.15A.16.16,0,0,1,2.76,1.71Z" transform="translate(0 -0.19)"/><path class="cls-3" d="M2,2.48A.09.09,0,0,1,2,2.57a.09.09,0,1,1,0-.18A.09.09,0,0,1,2,2.48Z" transform="translate(0 -0.19)"/><path class="cls-3" d="M2.4,2.48a.09.09,0,0,1-.1.09.09.09,0,0,1,0-.18A.09.09,0,0,1,2.4,2.48Z" transform="translate(0 -0.19)"/><path class="cls-3" d="M2.13,3.19a1.47,1.47,0,0,1-.58-.1,0,0,0,0,1,0-.07,1.51,1.51,0,0,0,.55.09A1.49,1.49,0,0,0,2.67,3a0,0,0,1,1,0,.07A1.45,1.45,0,0,1,2.13,3.19Z" transform="translate(0 -0.19)"/></svg>